<mxfile host="app.diagrams.net" modified="2024-06-03T18:06:06.183Z" agent="Mozilla/5.0 (Windows NT 10.0; Win64; x64) AppleWebKit/537.36 (KHTML, like Gecko) Chrome/125.0.0.0 Safari/537.36" etag="WlIlfwHMX9HsEBM4O4XQ" version="24.4.13" type="device">
  <diagram id="C5RBs43oDa-KdzZeNtuy" name="Page-1">
    <mxGraphModel dx="1050" dy="1739" grid="1" gridSize="10" guides="1" tooltips="1" connect="1" arrows="1" fold="1" page="1" pageScale="1" pageWidth="827" pageHeight="1169" math="0" shadow="0">
      <root>
        <object label="" id="WIyWlLk6GJQsqaUBKTNV-0">
          <mxCell />
        </object>
        <mxCell id="WIyWlLk6GJQsqaUBKTNV-1" parent="WIyWlLk6GJQsqaUBKTNV-0" />
        <mxCell id="GPPcgCzQjQ6U6VhlXNig-8" value="" style="ellipse;whiteSpace=wrap;html=1;labelBackgroundColor=none;" vertex="1" parent="WIyWlLk6GJQsqaUBKTNV-1">
          <mxGeometry x="360" y="-800" width="80" height="80" as="geometry" />
        </mxCell>
        <mxCell id="GPPcgCzQjQ6U6VhlXNig-9" value="" style="whiteSpace=wrap;html=1;labelBackgroundColor=none;" vertex="1" parent="WIyWlLk6GJQsqaUBKTNV-1">
          <mxGeometry x="345" y="-680" width="120" height="60" as="geometry" />
        </mxCell>
        <mxCell id="GPPcgCzQjQ6U6VhlXNig-10" value="" style="rounded=0;whiteSpace=wrap;html=1;labelBackgroundColor=none;" vertex="1" parent="WIyWlLk6GJQsqaUBKTNV-1">
          <mxGeometry x="340" y="-580" width="120" height="60" as="geometry" />
        </mxCell>
        <mxCell id="GPPcgCzQjQ6U6VhlXNig-11" value="" style="rhombus;whiteSpace=wrap;html=1;labelBackgroundColor=none;" vertex="1" parent="WIyWlLk6GJQsqaUBKTNV-1">
          <mxGeometry x="360" y="-480" width="80" height="80" as="geometry" />
        </mxCell>
        <mxCell id="GPPcgCzQjQ6U6VhlXNig-14" value="" style="endArrow=classic;html=1;rounded=0;exitX=0.5;exitY=1;exitDx=0;exitDy=0;labelBackgroundColor=none;fontColor=default;" edge="1" parent="WIyWlLk6GJQsqaUBKTNV-1" source="GPPcgCzQjQ6U6VhlXNig-8">
          <mxGeometry width="50" height="50" relative="1" as="geometry">
            <mxPoint x="390" y="-260" as="sourcePoint" />
            <mxPoint x="400" y="-680" as="targetPoint" />
          </mxGeometry>
        </mxCell>
        <mxCell id="GPPcgCzQjQ6U6VhlXNig-15" value="" style="rounded=0;whiteSpace=wrap;html=1;labelBackgroundColor=none;" vertex="1" parent="WIyWlLk6GJQsqaUBKTNV-1">
          <mxGeometry x="340" y="-360" width="120" height="60" as="geometry" />
        </mxCell>
        <mxCell id="GPPcgCzQjQ6U6VhlXNig-16" value="" style="endArrow=classic;html=1;rounded=0;" edge="1" parent="WIyWlLk6GJQsqaUBKTNV-1">
          <mxGeometry width="50" height="50" relative="1" as="geometry">
            <mxPoint x="440" y="-440" as="sourcePoint" />
            <mxPoint x="470" y="-660" as="targetPoint" />
            <Array as="points">
              <mxPoint x="610" y="-440" />
              <mxPoint x="610" y="-550" />
              <mxPoint x="610" y="-660" />
            </Array>
          </mxGeometry>
        </mxCell>
        <mxCell id="GPPcgCzQjQ6U6VhlXNig-17" value="" style="endArrow=classic;html=1;rounded=0;exitX=0.5;exitY=1;exitDx=0;exitDy=0;" edge="1" parent="WIyWlLk6GJQsqaUBKTNV-1">
          <mxGeometry width="50" height="50" relative="1" as="geometry">
            <mxPoint x="399.5" y="-620" as="sourcePoint" />
            <mxPoint x="399.5" y="-580" as="targetPoint" />
          </mxGeometry>
        </mxCell>
        <mxCell id="GPPcgCzQjQ6U6VhlXNig-18" value="" style="endArrow=classic;html=1;rounded=0;" edge="1" parent="WIyWlLk6GJQsqaUBKTNV-1">
          <mxGeometry width="50" height="50" relative="1" as="geometry">
            <mxPoint x="400" y="-297" as="sourcePoint" />
            <mxPoint x="400" y="-260" as="targetPoint" />
          </mxGeometry>
        </mxCell>
        <mxCell id="GPPcgCzQjQ6U6VhlXNig-19" value="" style="rounded=0;whiteSpace=wrap;html=1;" vertex="1" parent="WIyWlLk6GJQsqaUBKTNV-1">
          <mxGeometry x="340" y="-260" width="120" height="60" as="geometry" />
        </mxCell>
        <mxCell id="GPPcgCzQjQ6U6VhlXNig-20" value="" style="endArrow=classic;html=1;rounded=0;exitX=0.5;exitY=1;exitDx=0;exitDy=0;" edge="1" parent="WIyWlLk6GJQsqaUBKTNV-1" source="GPPcgCzQjQ6U6VhlXNig-19">
          <mxGeometry width="50" height="50" relative="1" as="geometry">
            <mxPoint x="390" y="200" as="sourcePoint" />
            <mxPoint x="400" y="-160" as="targetPoint" />
          </mxGeometry>
        </mxCell>
        <mxCell id="GPPcgCzQjQ6U6VhlXNig-24" value="" style="endArrow=classic;html=1;rounded=0;exitX=0.5;exitY=1;exitDx=0;exitDy=0;" edge="1" parent="WIyWlLk6GJQsqaUBKTNV-1" source="GPPcgCzQjQ6U6VhlXNig-41">
          <mxGeometry width="50" height="50" relative="1" as="geometry">
            <mxPoint x="400" y="260" as="sourcePoint" />
            <mxPoint x="400" y="-40" as="targetPoint" />
          </mxGeometry>
        </mxCell>
        <mxCell id="GPPcgCzQjQ6U6VhlXNig-25" value="" style="rounded=0;whiteSpace=wrap;html=1;" vertex="1" parent="WIyWlLk6GJQsqaUBKTNV-1">
          <mxGeometry x="340" y="-40" width="120" height="60" as="geometry" />
        </mxCell>
        <mxCell id="GPPcgCzQjQ6U6VhlXNig-26" value="" style="endArrow=classic;html=1;rounded=0;exitX=0.5;exitY=1;exitDx=0;exitDy=0;" edge="1" parent="WIyWlLk6GJQsqaUBKTNV-1" source="GPPcgCzQjQ6U6VhlXNig-25">
          <mxGeometry width="50" height="50" relative="1" as="geometry">
            <mxPoint x="630" y="150" as="sourcePoint" />
            <mxPoint x="400" y="60" as="targetPoint" />
          </mxGeometry>
        </mxCell>
        <mxCell id="GPPcgCzQjQ6U6VhlXNig-27" value="" style="rounded=0;whiteSpace=wrap;html=1;" vertex="1" parent="WIyWlLk6GJQsqaUBKTNV-1">
          <mxGeometry x="340" y="60" width="120" height="60" as="geometry" />
        </mxCell>
        <mxCell id="GPPcgCzQjQ6U6VhlXNig-30" value="Start" style="text;strokeColor=none;align=center;fillColor=none;html=1;verticalAlign=middle;whiteSpace=wrap;rounded=0;" vertex="1" parent="WIyWlLk6GJQsqaUBKTNV-1">
          <mxGeometry x="370" y="-775" width="60" height="30" as="geometry" />
        </mxCell>
        <mxCell id="GPPcgCzQjQ6U6VhlXNig-31" value="Select Tutor" style="text;strokeColor=none;align=center;fillColor=none;html=1;verticalAlign=middle;whiteSpace=wrap;rounded=0;" vertex="1" parent="WIyWlLk6GJQsqaUBKTNV-1">
          <mxGeometry x="370" y="-665" width="60" height="30" as="geometry" />
        </mxCell>
        <mxCell id="GPPcgCzQjQ6U6VhlXNig-33" value="Check Availability" style="text;strokeColor=none;align=center;fillColor=none;html=1;verticalAlign=middle;whiteSpace=wrap;rounded=0;" vertex="1" parent="WIyWlLk6GJQsqaUBKTNV-1">
          <mxGeometry x="370" y="-565" width="60" height="30" as="geometry" />
        </mxCell>
        <mxCell id="GPPcgCzQjQ6U6VhlXNig-34" value="Available ?" style="text;strokeColor=none;align=center;fillColor=none;html=1;verticalAlign=middle;whiteSpace=wrap;rounded=0;" vertex="1" parent="WIyWlLk6GJQsqaUBKTNV-1">
          <mxGeometry x="370" y="-450" width="60" height="30" as="geometry" />
        </mxCell>
        <mxCell id="GPPcgCzQjQ6U6VhlXNig-35" value="" style="endArrow=classic;html=1;rounded=0;exitX=0.5;exitY=1;exitDx=0;exitDy=0;" edge="1" parent="WIyWlLk6GJQsqaUBKTNV-1" source="GPPcgCzQjQ6U6VhlXNig-11">
          <mxGeometry width="50" height="50" relative="1" as="geometry">
            <mxPoint x="520" y="-70" as="sourcePoint" />
            <mxPoint x="400" y="-360" as="targetPoint" />
          </mxGeometry>
        </mxCell>
        <mxCell id="GPPcgCzQjQ6U6VhlXNig-36" value="Confirm Booking" style="text;strokeColor=none;align=center;fillColor=none;html=1;verticalAlign=middle;whiteSpace=wrap;rounded=0;" vertex="1" parent="WIyWlLk6GJQsqaUBKTNV-1">
          <mxGeometry x="370" y="-345" width="60" height="30" as="geometry" />
        </mxCell>
        <mxCell id="GPPcgCzQjQ6U6VhlXNig-37" value="yes" style="text;strokeColor=none;align=center;fillColor=none;html=1;verticalAlign=middle;whiteSpace=wrap;rounded=0;" vertex="1" parent="WIyWlLk6GJQsqaUBKTNV-1">
          <mxGeometry x="345" y="-400" width="60" height="30" as="geometry" />
        </mxCell>
        <mxCell id="GPPcgCzQjQ6U6VhlXNig-39" value="No" style="text;strokeColor=none;align=center;fillColor=none;html=1;verticalAlign=middle;whiteSpace=wrap;rounded=0;" vertex="1" parent="WIyWlLk6GJQsqaUBKTNV-1">
          <mxGeometry x="600" y="-595" width="60" height="30" as="geometry" />
        </mxCell>
        <mxCell id="GPPcgCzQjQ6U6VhlXNig-40" value="process Payment" style="text;strokeColor=none;align=center;fillColor=none;html=1;verticalAlign=middle;whiteSpace=wrap;rounded=0;" vertex="1" parent="WIyWlLk6GJQsqaUBKTNV-1">
          <mxGeometry x="365" y="-245" width="60" height="30" as="geometry" />
        </mxCell>
        <mxCell id="GPPcgCzQjQ6U6VhlXNig-41" value="" style="rhombus;whiteSpace=wrap;html=1;" vertex="1" parent="WIyWlLk6GJQsqaUBKTNV-1">
          <mxGeometry x="360" y="-160" width="80" height="80" as="geometry" />
        </mxCell>
        <mxCell id="GPPcgCzQjQ6U6VhlXNig-42" value="Payment Successful" style="text;strokeColor=none;align=center;fillColor=none;html=1;verticalAlign=middle;whiteSpace=wrap;rounded=0;" vertex="1" parent="WIyWlLk6GJQsqaUBKTNV-1">
          <mxGeometry x="370" y="-135" width="60" height="30" as="geometry" />
        </mxCell>
        <mxCell id="GPPcgCzQjQ6U6VhlXNig-43" value="Notify Tutor" style="text;strokeColor=none;align=center;fillColor=none;html=1;verticalAlign=middle;whiteSpace=wrap;rounded=0;" vertex="1" parent="WIyWlLk6GJQsqaUBKTNV-1">
          <mxGeometry x="365" y="-20" width="60" height="30" as="geometry" />
        </mxCell>
        <mxCell id="GPPcgCzQjQ6U6VhlXNig-59" value="End" style="text;strokeColor=none;align=center;fillColor=none;html=1;verticalAlign=middle;whiteSpace=wrap;rounded=0;" vertex="1" parent="WIyWlLk6GJQsqaUBKTNV-1">
          <mxGeometry x="365" y="75" width="60" height="30" as="geometry" />
        </mxCell>
        <mxCell id="GPPcgCzQjQ6U6VhlXNig-63" value="" style="endArrow=classic;html=1;rounded=0;exitX=0.5;exitY=1;exitDx=0;exitDy=0;entryX=0.5;entryY=0;entryDx=0;entryDy=0;" edge="1" parent="WIyWlLk6GJQsqaUBKTNV-1" source="GPPcgCzQjQ6U6VhlXNig-10" target="GPPcgCzQjQ6U6VhlXNig-11">
          <mxGeometry width="50" height="50" relative="1" as="geometry">
            <mxPoint x="260" y="-440" as="sourcePoint" />
            <mxPoint x="310" y="-490" as="targetPoint" />
          </mxGeometry>
        </mxCell>
        <mxCell id="GPPcgCzQjQ6U6VhlXNig-64" value="yes" style="text;strokeColor=none;align=center;fillColor=none;html=1;verticalAlign=middle;whiteSpace=wrap;rounded=0;" vertex="1" parent="WIyWlLk6GJQsqaUBKTNV-1">
          <mxGeometry x="345" y="-80" width="60" height="30" as="geometry" />
        </mxCell>
        <mxCell id="GPPcgCzQjQ6U6VhlXNig-65" value="" style="endArrow=none;html=1;rounded=0;exitX=1;exitY=0.5;exitDx=0;exitDy=0;" edge="1" parent="WIyWlLk6GJQsqaUBKTNV-1" source="GPPcgCzQjQ6U6VhlXNig-41">
          <mxGeometry width="50" height="50" relative="1" as="geometry">
            <mxPoint x="510" y="-85" as="sourcePoint" />
            <mxPoint x="600" y="-120" as="targetPoint" />
          </mxGeometry>
        </mxCell>
        <mxCell id="GPPcgCzQjQ6U6VhlXNig-66" value="" style="endArrow=none;html=1;rounded=0;" edge="1" parent="WIyWlLk6GJQsqaUBKTNV-1">
          <mxGeometry width="50" height="50" relative="1" as="geometry">
            <mxPoint x="600" y="-120" as="sourcePoint" />
            <mxPoint x="600" y="-240" as="targetPoint" />
          </mxGeometry>
        </mxCell>
        <mxCell id="GPPcgCzQjQ6U6VhlXNig-67" value="" style="endArrow=classic;html=1;rounded=0;entryX=1.017;entryY=0.377;entryDx=0;entryDy=0;entryPerimeter=0;" edge="1" parent="WIyWlLk6GJQsqaUBKTNV-1" target="GPPcgCzQjQ6U6VhlXNig-19">
          <mxGeometry width="50" height="50" relative="1" as="geometry">
            <mxPoint x="600" y="-240" as="sourcePoint" />
            <mxPoint x="650" y="-290" as="targetPoint" />
            <Array as="points">
              <mxPoint x="470" y="-240" />
            </Array>
          </mxGeometry>
        </mxCell>
        <mxCell id="GPPcgCzQjQ6U6VhlXNig-68" value="No" style="text;strokeColor=none;align=center;fillColor=none;html=1;verticalAlign=middle;whiteSpace=wrap;rounded=0;" vertex="1" parent="WIyWlLk6GJQsqaUBKTNV-1">
          <mxGeometry x="590" y="-200" width="60" height="30" as="geometry" />
        </mxCell>
      </root>
    </mxGraphModel>
  </diagram>
</mxfile>
